<?xml version="1.0" standalone="no"?>
<!DOCTYPE svg PUBLIC "-//W3C//DTD SVG 20010904//EN"
 "http://www.w3.org/TR/2001/REC-SVG-20010904/DTD/svg10.dtd">
<svg version="1.0" xmlns="http://www.w3.org/2000/svg"
 width="260.000000pt" height="260.000000pt" viewBox="0 0 260.000000 260.000000"
 preserveAspectRatio="xMidYMid meet">
<metadata>
Created by potrace 1.11, written by Peter Selinger 2001-2013
</metadata>
<g transform="translate(0.000000,260.000000) scale(0.100000,-0.100000)"
fill="#000000" stroke="none">
<path d="M855 1358 c-132 -226 -255 -438 -273 -470 l-33 -58 68 0 68 0 240
412 c132 226 255 438 273 470 l33 58 -68 0 -68 0 -240 -412z"/>
<path d="M1775 1736 c-63 -20 -100 -42 -135 -82 -45 -52 -60 -93 -60 -168 0
-75 11 -110 47 -148 l26 -27 -40 -45 c-121 -137 -57 -344 125 -402 126 -40
271 -7 348 79 48 53 64 95 64 169 0 73 -23 129 -69 172 -30 29 -30 30 -11 43
37 26 63 93 64 159 0 180 -181 306 -359 250z m139 -201 c56 -52 19 -145 -59
-145 -48 0 -85 36 -85 83 0 76 87 114 144 62z m-15 -339 c29 -15 51 -53 51
-87 0 -11 -13 -34 -29 -50 -61 -60 -161 -24 -161 58 0 43 5 52 40 76 30 21 62
22 99 3z"/>
<path d="M517 1688 c-36 -29 -66 -56 -66 -59 -1 -4 16 -26 38 -50 34 -38 40
-42 55 -30 15 12 16 -1 16 -163 l0 -176 70 0 70 0 0 265 0 265 -59 0 c-55 0
-62 -3 -124 -52z"/>
<path d="M1149 1381 c-44 -14 -99 -43 -99 -53 0 -5 14 -29 30 -54 l31 -44 30
16 c18 9 49 14 77 12 42 -3 47 -6 50 -29 2 -21 -6 -32 -53 -63 -135 -89 -175
-147 -175 -251 l0 -65 188 2 187 3 0 55 0 55 -112 3 c-62 1 -113 6 -113 11 0
5 33 31 73 59 39 27 84 63 99 79 85 89 68 207 -36 254 -42 19 -129 24 -177 10z"/>
</g>
</svg>
